<svg xmlns="http://www.w3.org/2000/svg" viewBox="0 0 760 1120"><defs><filter id="paper"><feTurbulence baseFrequency=".014" numOctaves="3" seed="14" result="n"/><feDisplacementMap in="SourceGraphic" in2="n" scale="5"/></filter><filter id="shadow"><feDropShadow dx="0" dy="9" stdDeviation="8" flood-opacity=".16"/></filter><clipPath id="pt"><path d="M275 55l120 35 38 95-20 115 38 105-28 105 12 115-40 100 12 105-52 105-85 40-90-45-38-95 22-115-35-105 38-105-22-110 42-100-12-110 45-100z"/></clipPath><g id="tower" fill="#6c5941" stroke="#4c4030" stroke-width="3"><rect x="-28" y="0" width="56" height="46"/><path d="M-20 0V-25h40V0M-8-25L0-45 8-25"/><rect x="-7" y="15" width="14" height="31"/></g><g id="church" fill="#735f46" stroke="#4c4030" stroke-width="3"><rect x="-38" y="-2" width="76" height="48"/><path d="M-25-2l11-40 11 40M3-2l11-40 11 40"/><rect x="-6" y="13" width="12" height="33"/></g></defs><rect width="760" height="1120" fill="#fbf8ef"/><g fill="none" stroke="#8fb6c6" stroke-width="3" opacity=".43"><path d="M30 190q45-28 90 0t90 0"/><path d="M515 130q45-28 90 0t90 0"/><path d="M500 900q45-28 90 0t90 0"/></g><g clip-path="url(#pt)" filter="url(#paper)"><rect x="90" y="45" width="400" height="1035" fill="#e8dfbd"/><circle cx="230" cy="210" r="185" fill="#d7e5c4"/><circle cx="330" cy="390" r="195" fill="#ead89b"/><circle cx="230" cy="590" r="205" fill="#cbdbea"/><circle cx="340" cy="770" r="210" fill="#e7c8b2"/><circle cx="250" cy="955" r="190" fill="#c9dfd8"/><g stroke="#fff" stroke-width="4" opacity=".66"><path d="M135 265L430 285"/><path d="M130 480L430 500"/><path d="M125 690L430 705"/><path d="M145 880L415 890"/><path d="M270 75L280 1040"/></g></g><path d="M275 55l120 35 38 95-20 115 38 105-28 105 12 115-40 100 12 105-52 105-85 40-90-45-38-95 22-115-35-105 38-105-22-110 42-100-12-110 45-100z" fill="none" stroke="#918b7e" stroke-width="6" stroke-linejoin="round" filter="url(#shadow)"/><g filter="url(#shadow)"><g transform="translate(285 170) scale(.78)"><use href="#church"/></g><g transform="translate(245 265) scale(.72)"><use href="#tower"/></g><g transform="translate(275 405) scale(.74)"><use href="#church"/></g><g transform="translate(245 555) scale(.70)"><use href="#church"/></g><g transform="translate(330 545) scale(.65)"><use href="#tower"/></g><g transform="translate(220 750) scale(.78)"><use href="#tower"/></g><g transform="translate(315 805) scale(.68)"><use href="#church"/></g><g transform="translate(300 1020) scale(.74)"><use href="#church"/></g></g><g transform="translate(585 165)" fill="#c99755" stroke="#7c603d" stroke-width="3"><path d="M0 42C-28 13-24-27 0-40C24-27 28 13 0 42z"/><path d="M0-40v82"/><rect x="-8" y="42" width="16" height="11"/></g><g transform="translate(570 740)" fill="#c7a86b" stroke="#78654d" stroke-width="3"><path d="M-30 12h60l-8 8h-44z"/><path d="M0 12V-28l32 28z" fill="#e7dfcc"/></g></svg>